<svg width="143" height="168" viewBox="0 0 143 168" fill="none" xmlns="http://www.w3.org/2000/svg">
<path d="M143 115.188L71.5 0.723389L0 115.188L1.43574 117.844C6.83413 129.106 15.0466 137.942 25.8434 144.237C36.5827 150.474 49.7916 153.997 65.1253 154.748L71.3851 167.569L77.7024 154.748C92.749 153.939 105.958 150.07 117.099 143.255C122.498 139.906 127.494 135.863 131.801 131.243C135.592 127.143 138.98 122.522 141.851 117.498H141.794L143 115.188ZM75.8072 22.8424L111.356 80.0169H75.8072V22.8424ZM100.559 88.5642L89.4181 111.203H53.3522L42.3257 88.5642H100.559ZM67.1353 22.9002V79.9591H31.6438L67.1353 22.9002ZM29.9783 82.6157L43.8763 111.203H12.1751L29.9783 82.6157ZM30.1506 136.614C22.6273 132.282 16.5972 126.45 12.1177 119.231H47.839L60.7032 145.623C48.8153 144.526 38.5353 141.523 30.1506 136.614ZM71.4426 148.164L57.3149 119.231H85.5128L71.4426 148.164ZM82.1245 145.565L95.0462 119.231H130.308C121.694 131.07 106.992 142.909 82.1245 145.565ZM98.9514 111.203L113.022 82.558L130.825 111.203H98.9514Z" fill="white"/>
</svg>
